<?xml version="1.0" encoding="utf-8"?>
<!-- Generator: Adobe Illustrator 23.0.3, SVG Export Plug-In . SVG Version: 6.00 Build 0)  -->
<svg version="1.1"
	 id="Layer_1" image-rendering="optimizeQuality" text-rendering="geometricPrecision" shape-rendering="geometricPrecision"
	 xmlns="http://www.w3.org/2000/svg" xmlns:xlink="http://www.w3.org/1999/xlink" x="0px" y="0px" viewBox="0 0 260 300"
	 style="enable-background:new 0 0 260 300;" xml:space="preserve">
<style type="text/css">
	.st0{fill:none;}
	.st1{fill-rule:evenodd;clip-rule:evenodd;fill:#E6E6E6;}
	.st2{fill-rule:evenodd;clip-rule:evenodd;fill:#D0CECF;}
	.st3{fill-rule:evenodd;clip-rule:evenodd;fill:#D42B25;}
	.st4{fill-rule:evenodd;clip-rule:evenodd;fill:#FEFEFE;}
</style>
<rect x="-126" y="-106" class="st0" width="512" height="512"/>
<polygon class="st1" points="130,0 195,37 260,75 260,150 260,225 195,263 130,300 65,263 0,225 0,150 0,75 65,37 "/>
<polygon class="st2" points="130,300 65,263 0,225 0,150 0,75 65,37 130,0 "/>
<polygon class="st1" points="130,25 184,56 238,87 238,150 238,213 184,244 130,275 76,244 22,213 22,150 22,87 76,56 "/>
<path class="st3" d="M180,106c-2,1-50,28-50,28c-1,0-33-18-38-21c-4-2-9-5-13-7c-4-1-9,0-11,3c-3,3-4,5-4,10v60c0,5,0,8,3,11
	s5,4,11,4v-74l26,15c4,3,8,5,13,7c2,2,4,3,6,4s4,2,7,4c1,0,5-3,6-4c2-1,4-2,7-3l25-15c5-3,9-5,13-8h1c0,0,2-1,3-2l7-4c0,0,2-1,3-2
	c-1-2-4-4-5-5C187,106,183,105,180,106z"/>
<path class="st4" d="M182,194L182,194c-1-1-9-7-10-8l-7-6c0-1-1-1-1-1l-28-24c0,0,0,0-1,0c-1-2-4-4-5-5c0,1,0,0,0,1l-7,6
	c-2,2-5,4-7,6l-11,9c-2,2-1,2-4,4l-3,2c-3,3-17,15-18,16H182z"/>
<path class="st2" d="M130,150c-1,1,0,0-1,0l-9,8c-1,1-1,1-2,1c-2,2-6,6-8,7c0,1-1,1-1,2l-8,7c-1,0-1,0-2,1s-1,1-2,1l-19,17
	c2,1,24,0,26,0c11,0,77,1,78,0H80c1-1,15-13,18-16l3-2c3-2,2-2,4-4l11-9c2-2,5-4,7-6l7-6C130,150,130,151,130,150c1,1,4,3,5,5
	c1,0,1,0,1,0l28,24c0,0,1,0,1,1l7,6c1,1,9,7,10,8c-1-6,0-13,0-19v-50c0-2,0-4-1-5c-4,3-8,5-13,8l-25,15c-3,1-5,2-7,3
	C135,147,131,150,130,150z"/>
<path class="st4" d="M78,194l19-17c1,0,1,0,2-1s1-1,2-1l8-7c0-1,1-1,1-2c2-1,6-5,8-7c1,0,1,0,2-1l9-8c1,0,0,1,1,0c-3-2-5-3-7-4
	s-4-2-6-4c-5-2-9-4-13-7l-26-15C78,121,78,187,78,194z M180,106c-1-1-22,0-25,0c-8,0-17,0-25,0c-6,0-49-1-51,0c4,2,9,5,13,7
	c5,3,37,21,38,21C130,134,178,107,180,106z"/>
<path class="st3" d="M182,120v74c4,0,7,0,10-2c6-5,4-13,4-20v-49c0-4,1-9-1-11c-1,1-3,2-3,2l-7,4C184,119,182,120,182,120z"/>
</svg>
