<?xml version="1.0" encoding="utf-8"?>
<!-- Generator: Adobe Illustrator 23.0.3, SVG Export Plug-In . SVG Version: 6.00 Build 0)  -->
<svg version="1.1"
	 id="Layer_1" image-rendering="optimizeQuality" text-rendering="geometricPrecision" shape-rendering="geometricPrecision"
	 xmlns="http://www.w3.org/2000/svg" xmlns:xlink="http://www.w3.org/1999/xlink" x="0px" y="0px" viewBox="0 0 260 300"
	 style="enable-background:new 0 0 260 300;" xml:space="preserve">
<style type="text/css">
	.st0{fill:none;}
	.st1{fill-rule:evenodd;clip-rule:evenodd;fill:#C1558B;}
	.st2{fill-rule:evenodd;clip-rule:evenodd;fill:#B24277;}
	.st3{fill-rule:evenodd;clip-rule:evenodd;fill:#FFFFFF;}
</style>
<rect x="-126" y="-106" class="st0" width="512" height="512"/>
<polygon class="st1" points="130,0 195,37 260,75 260,150 260,225 195,263 130,300 65,263 0,225 0,150 0,75 65,37 "/>
<polygon class="st2" points="130,300 65,263 0,225 0,150 0,75 65,37 130,0 "/>
<polygon class="st1" points="130,25 184,56 238,87 238,150 238,213 184,244 130,275 76,244 22,213 22,150 22,87 76,56 "/>
<path class="st3" d="M99,86c-7,0-15,3-20,8c-3,2-4,3-6,6c-4,5-6,11-7,17c-1,5,0,26,0,32s0,11,0,16c0,15-2,24,8,36l2,2c0,1,0,1,1,1
	c1,2,6,5,8,6c11,5,17,4,28,4h32c11,0,19,2,29-3c3-2,4-3,7-5l2-2c3-2,6-6,7-9c5-11,4-16,4-28v-32c0-15,2-24-8-36c-3-4-7-7-11-9
	s-7-3-12-4s-26,0-32,0s-11,0-16,0S104,85,99,86z M100,98c-6,1-10,3-14,6l-3,3c-5,7-5,12-5,21v39c0,10-1,17,5,25c1,2,3,4,4,5
	c7,5,12,5,21,5c5,0,49,0,52,0c5-1,9-2,12-5l3-2c7-8,7-14,7-23v-39c0-9,1-16-3-23c-2-2-2-2-3-4c0-1-1-1-2-1c0-1-1-2-1-2
	c-7-5-11-5-21-5c-13,0-26,0-39,0C109,98,104,98,100,98z"/>
<path class="st3" d="M126,117c-7,0-14,4-20,9c-7,7-11,18-9,28c2,17,17,32,37,29c27-3,41-38,18-59c-3-2-7-4-11-6
	C136,117,132,116,126,117z M127,129c-10,1-20,11-18,24c1,10,11,20,24,18c10-1,20-11,18-24C150,137,140,128,127,129z M163,108
	c-4,1-7,4-6,9c0,4,4,7,8,7c4-1,8-5,7-9S168,108,163,108z"/>
</svg>
