<?xml version="1.0" encoding="utf-8"?>
<!-- Generator: Adobe Illustrator 23.0.3, SVG Export Plug-In . SVG Version: 6.00 Build 0)  -->
<svg version="1.1"
	 id="Layer_1" image-rendering="optimizeQuality" text-rendering="geometricPrecision" shape-rendering="geometricPrecision"
	 xmlns="http://www.w3.org/2000/svg" xmlns:xlink="http://www.w3.org/1999/xlink" x="0px" y="0px" viewBox="0 0 260 300"
	 style="enable-background:new 0 0 260 300;" xml:space="preserve">
<style type="text/css">
	.st0{fill:none;}
	.st1{fill-rule:evenodd;clip-rule:evenodd;fill:#007BB5;}
	.st2{fill-rule:evenodd;clip-rule:evenodd;fill:#0066A4;}
	.st3{fill-rule:evenodd;clip-rule:evenodd;fill:#FDFEFE;}
</style>
<rect x="-126" y="-106" class="st0" width="512" height="512"/>
<polygon class="st1" points="130,0 195,37 260,75 260,150 260,225 195,263 130,300 65,263 0,225 0,150 0,75 65,37 "/>
<polygon class="st2" points="130,300 65,263 0,225 0,150 0,75 65,37 130,0 "/>
<polygon class="st1" points="130,25 184,56 238,87 238,150 238,213 184,244 130,275 76,244 22,213 22,150 22,87 76,56 "/>
<path class="st3" d="M117,202h25v-48c0-9,4-13,12-13c9,0,13,4,13,13v48h24v-42c0-28-4-47-33-44c-13,2-13,7-16,11v-11h-25V202z"/>
<polygon class="st3" points="80,202 105,202 105,116 80,116 "/>
<path class="st3" d="M90,85c-16,4-10,28,6,24C111,106,106,82,90,85z"/>
</svg>
