<?xml version="1.0" encoding="utf-8"?>
<!-- Generator: Adobe Illustrator 23.0.3, SVG Export Plug-In . SVG Version: 6.00 Build 0)  -->
<svg version="1.1"
	 id="Layer_1" image-rendering="optimizeQuality" text-rendering="geometricPrecision" shape-rendering="geometricPrecision"
	 xmlns="http://www.w3.org/2000/svg" xmlns:xlink="http://www.w3.org/1999/xlink" x="0px" y="0px" viewBox="0 0 260 300"
	 style="enable-background:new 0 0 260 300;" xml:space="preserve">
<style type="text/css">
	.st0{fill:none;}
	.st1{fill-rule:evenodd;clip-rule:evenodd;fill:#64A9DC;}
	.st2{fill-rule:evenodd;clip-rule:evenodd;fill:#5097D3;}
	.st3{fill-rule:evenodd;clip-rule:evenodd;fill:#FEFEFF;}
</style>
<rect x="-126" y="-106" class="st0" width="512" height="512"/>
<polygon class="st1" points="130,0 195,37 260,75 260,150 260,225 195,263 130,300 65,263 0,225 0,150 0,75 65,37 "/>
<polygon class="st2" points="130,300 65,263 0,225 0,150 0,75 65,37 130,0 "/>
<polygon class="st1" points="130,25 184,56 238,87 238,150 238,213 184,244 130,275 76,244 22,213 22,150 22,87 76,56 "/>
<path class="st3" d="M148,125l-1,1c-2,2-5,4-7,6c-2,3-5,5-7,7l-1,1l-18,16l0,0c-1,1-2,2-3,2l-7,7c-1,1-1,1-2,2c-3,2-4,1-3,10l-1,2v9
	l-1,2v3v1h-1v-1v-1l-5-16l0,0l-3-9l0,0l-3-9l1-1h1l6-4v-1c4-2,8-5,12-7c2-1,4-2,6-4c2-1,4-2,6-3v-1l7-4l0,0c4-2,8-5,12-7
	c4-3,8-6,12-8l0,0l7-4v-1c2,0,4-2,6-1c0,2-1,3-3,4L148,125z M174,92h-1l-4,2h-1l-20,8l0,0l-5,2l0,0l-21,8l0,0l-4,1l-1,1l-20,8h-1
	l-4,1v1l-21,7v1l-21,7v1c-3,1-9,4-6,8c1,0,0,0,0,0c2,1,2,2,4,2h1l5,2h1l5,2l0,0l8,2l1,1l5,1h1c1,1,2,1,3,1c2,1,2,1,2,3h1v1l0,0l5,17
	l0,0l6,16v1l0,0v1c1,2,1,4,3,4c2,1,4,1,6,0c1-1,6-6,7-7l1-1l10-10c0,0,1-1,1,1c2,0,3,2,5,3l1,1c2,1,5,4,8,6l0,0c3,2,5,4,8,6l0,0
	c3,2,6,4,9,6v1l2,1l0,0c5,2,8,1,10-3c1-2,3-10,3-12v-1l2-11l1-1l2-11v-1l3-11v-1l2-11l1-1l2-11v-1l2-11l1-1l2-11v-1l1-5l0,0
	c1-3,1-5,1-8s-1-4-3-5l-1-1C178,89,177,91,174,92z"/>
</svg>
