<?xml version="1.0" encoding="utf-8"?>
<!-- Generator: Adobe Illustrator 23.0.3, SVG Export Plug-In . SVG Version: 6.00 Build 0)  -->
<svg version="1.1"
	 id="Layer_1" image-rendering="optimizeQuality" text-rendering="geometricPrecision" shape-rendering="geometricPrecision"
	 xmlns="http://www.w3.org/2000/svg" xmlns:xlink="http://www.w3.org/1999/xlink" x="0px" y="0px" viewBox="0 0 260 300"
	 style="enable-background:new 0 0 260 300;" xml:space="preserve">
<style type="text/css">
	.st0{fill:none;}
	.st1{fill-rule:evenodd;clip-rule:evenodd;fill:#24CF64;}
	.st2{fill-rule:evenodd;clip-rule:evenodd;fill:#1AC350;}
	.st3{fill-rule:evenodd;clip-rule:evenodd;fill:#FDFEFD;}
</style>
<rect x="-126" y="-106" class="st0" width="512" height="512"/>
<polygon class="st1" points="130,0 195,37 260,75 260,150 260,225 195,263 130,300 65,263 0,225 0,150 0,75 65,37 "/>
<polygon class="st2" points="130,300 65,263 0,225 0,150 0,75 65,37 130,0 "/>
<polygon class="st1" points="130,25 184,56 238,87 238,150 238,213 184,244 130,275 76,244 22,213 22,150 22,87 76,56 "/>
<path class="st3" d="M62,212c4-1,23-6,29-8c8-2,5-2,13,1c19,8,42,7,59-3c9-5,10-6,16-12c27-27,26-71-1-97c-12-11-29-21-53-19
	c-41,3-70,42-62,81c2,11,4,12,8,20c0,2-1,5-2,7c-1,5-2,10-4,15C64,201,62,207,62,212z M78,195c3,0,8-2,12-3c2,0,4-1,6-1c2-1,3-2,5,0
	c6,3,14,6,22,7c16,2,34-3,45-13c5-5,9-10,13-17c3-7,6-14,6-24c0-14-4-28-13-38l-12-11c-10-7-23-10-35-10c-42,3-68,49-45,87
	c2,4,1,3-1,11C80,187,79,192,78,195z M105,111c-4,1-7,6-9,10c-1,6,0,11,2,16c3,7,11,17,16,21c6,6,12,10,22,14c5,2,9,4,16,3
	s13-7,13-15c0-3-3-3-5-4s-11-7-13-5c-1,0-4,4-4,5c-2,2-3,4-6,3c-8-3-16-9-21-16c-5-8-3-6,1-11c3-4,1-6-2-14C113,114,113,109,105,111
	z"/>
</svg>
